<svg t="1704017344607" class="icon" viewBox="0 0 1024 1024" version="1.1" xmlns="http://www.w3.org/2000/svg" p-id="5444" width="200" height="200"><path d="M592.457143 0a73.142857 73.142857 0 0 1 52.150857 21.942857l265.801143 270.921143a73.142857 73.142857 0 0 1 20.992 51.2V475.428571h-73.142857V366.665143h-292.571429V73.142857H219.428571v877.714286h565.686858v73.142857H219.062857C184.32 1024 146.285714 999.350857 146.285714 956.562286V67.437714C146.285714 24.649143 184.32 0 219.062857 0z m46.372571 120.393143v173.129143h169.764572L638.829714 120.393143zM712.265143 585.142857c35.401143 0 64 28.672 64 64v163.181714a64 64 0 0 1-64 64H576.146286V585.142857h136.118857z m-81.261714 236.324572h81.261714a9.142857 9.142857 0 0 0 9.142857-9.142858V649.142857a9.142857 9.142857 0 0 0-9.142857-9.142857H631.003429v181.467429zM465.261714 585.581714c35.401143 0 64 28.672 64 64v76.946286a64 64 0 0 1-64 64H384v87.04H329.142857V585.581714h136.118857z m0 150.089143a9.142857 9.142857 0 0 0 9.142857-9.142857V649.508571a9.142857 9.142857 0 0 0-9.142857-9.142857H384v95.232h81.261714z m412.745143 141.897143v-115.638857h117.833143v-54.857143h-117.833143V640h117.833143V585.142857h-172.690286v292.425143h54.857143z" p-id="5445" fill="#000000"></path></svg>